<svg width="181" height="38" viewBox="0 0 181 38" fill="none" xmlns="http://www.w3.org/2000/svg">
<rect width="181" height="38" rx="19" fill="#F0052F"/>
<path d="M39.2659 19.6961V24.7059H37.5784V11.909H42.2981C43.6985 11.909 44.7942 12.2664 45.5852 12.9813C46.3821 13.6961 46.7805 14.6424 46.7805 15.8201C46.7805 17.0623 46.3909 18.0203 45.6116 18.6942C44.8382 19.3621 43.7278 19.6961 42.2805 19.6961H39.2659ZM39.2659 18.3162H42.2981C43.2005 18.3162 43.8919 18.1053 44.3723 17.6834C44.8528 17.2557 45.093 16.6405 45.093 15.8377C45.093 15.076 44.8528 14.4666 44.3723 14.0096C43.8919 13.5526 43.2327 13.3153 42.3948 13.2977H39.2659V18.3162ZM52.5022 24.8817C51.2132 24.8817 50.1643 24.4598 49.3557 23.616C48.5471 22.7664 48.1429 21.6326 48.1429 20.2147V19.9158C48.1429 18.9725 48.3216 18.1317 48.679 17.3934C49.0423 16.6492 49.5462 16.0692 50.1907 15.6532C50.8411 15.2313 51.5442 15.0203 52.3001 15.0203C53.5364 15.0203 54.4973 15.4276 55.1829 16.242C55.8684 17.0565 56.2112 18.2225 56.2112 19.7401V20.4168H49.7688C49.7923 21.3543 50.0647 22.1131 50.5862 22.6932C51.1136 23.2674 51.7815 23.5545 52.5901 23.5545C53.1643 23.5545 53.6507 23.4373 54.0491 23.203C54.4475 22.9686 54.7962 22.658 55.095 22.2713L56.0882 23.0448C55.2913 24.2694 54.096 24.8817 52.5022 24.8817ZM52.3001 16.3563C51.6438 16.3563 51.093 16.5965 50.6477 17.077C50.2024 17.5516 49.927 18.2196 49.8216 19.0809H54.5852V18.9578C54.5384 18.1317 54.3157 17.493 53.9173 17.0418C53.5188 16.5848 52.9798 16.3563 52.3001 16.3563ZM64.2444 16.5408H59.8587V24.7059H58.2239V15.1961H64.2444V16.5408ZM71.8118 15.1961H73.4378V24.7059H71.8118V17.7713L67.4261 24.7059H65.8001V15.1961H67.4261V22.1395L71.8118 15.1961ZM79.8626 23.5545C80.4427 23.5545 80.9495 23.3787 81.3831 23.0272C81.8167 22.6756 82.0569 22.2362 82.1038 21.7088H83.6419C83.6126 22.2537 83.4251 22.7723 83.0794 23.2645C82.7337 23.7567 82.2708 24.1492 81.6907 24.4422C81.1165 24.7352 80.5071 24.8817 79.8626 24.8817C78.5677 24.8817 77.5364 24.451 76.7688 23.5897C76.0071 22.7225 75.6263 21.5389 75.6263 20.0389V19.7664C75.6263 18.8407 75.7962 18.0174 76.136 17.2967C76.4759 16.576 76.9622 16.0164 77.595 15.618C78.2337 15.2196 78.9866 15.0203 79.8538 15.0203C80.9202 15.0203 81.805 15.3397 82.5081 15.9783C83.2171 16.617 83.595 17.4461 83.6419 18.4657H82.1038C82.0569 17.8504 81.8225 17.3465 81.4007 16.9539C80.9846 16.5555 80.469 16.3563 79.8538 16.3563C79.0276 16.3563 78.386 16.6551 77.929 17.2528C77.4778 17.8446 77.2522 18.703 77.2522 19.828V20.1356C77.2522 21.2313 77.4778 22.075 77.929 22.6668C78.3802 23.2586 79.0247 23.5545 79.8626 23.5545ZM92.5364 16.5145H89.346V24.7059H87.72V16.5145H84.5911V15.1961H92.5364V16.5145ZM102.152 20.0565C102.152 21.5037 101.821 22.6698 101.158 23.5545C100.496 24.4393 99.5999 24.8817 98.469 24.8817C97.3147 24.8817 96.4065 24.5155 95.7444 23.783V28.3621H94.1184V15.1961H95.6038L95.6829 16.2508C96.345 15.4305 97.2649 15.0203 98.4427 15.0203C99.5852 15.0203 100.488 15.451 101.15 16.3123C101.818 17.1737 102.152 18.3719 102.152 19.9071V20.0565ZM100.526 19.8719C100.526 18.7996 100.297 17.953 99.8401 17.3319C99.3831 16.7108 98.7561 16.4002 97.9593 16.4002C96.9749 16.4002 96.2366 16.8367 95.7444 17.7098V22.2537C96.2307 23.1209 96.9749 23.5545 97.9768 23.5545C98.7561 23.5545 99.3743 23.2469 99.8313 22.6317C100.294 22.0106 100.526 21.0907 100.526 19.8719ZM110.097 24.7059C110.003 24.5184 109.927 24.1844 109.868 23.7039C109.113 24.4891 108.21 24.8817 107.161 24.8817C106.224 24.8817 105.453 24.618 104.85 24.0907C104.252 23.5574 103.953 22.8836 103.953 22.0692C103.953 21.0789 104.328 20.3114 105.078 19.7664C105.834 19.2157 106.895 18.9403 108.26 18.9403H109.842V18.1932C109.842 17.6248 109.672 17.1737 109.332 16.8397C108.992 16.4998 108.491 16.3299 107.829 16.3299C107.249 16.3299 106.763 16.4764 106.37 16.7694C105.978 17.0623 105.782 17.4168 105.782 17.8328H104.147C104.147 17.3582 104.314 16.9012 104.648 16.4617C104.988 16.0164 105.445 15.6649 106.019 15.4071C106.599 15.1492 107.235 15.0203 107.926 15.0203C109.022 15.0203 109.88 15.2957 110.501 15.8465C111.122 16.3914 111.445 17.1444 111.468 18.1053V22.4823C111.468 23.3553 111.579 24.0496 111.802 24.5653V24.7059H110.097ZM107.399 23.4666C107.908 23.4666 108.392 23.3348 108.849 23.0711C109.306 22.8074 109.637 22.4647 109.842 22.0428V20.0916H108.568C106.575 20.0916 105.579 20.6746 105.579 21.8407C105.579 22.3504 105.749 22.7489 106.089 23.036C106.429 23.3231 106.866 23.4666 107.399 23.4666ZM114.158 15.1961H115.792V23.3787H120.169V15.1961H121.795V23.3787H122.929L122.771 27.5272H121.312V24.7059H114.158V15.1961ZM130.839 15.1961H132.465V24.7059H130.839V17.7713L126.453 24.7059H124.827V15.1961H126.453V22.1395L130.839 15.1961ZM142.344 15.1961V24.7059H140.709V21.0057H138.257L136.016 24.7059H134.258L136.649 20.7596C136.039 20.5369 135.571 20.1942 135.242 19.7313C134.92 19.2625 134.759 18.7176 134.759 18.0965C134.759 17.2293 135.084 16.5321 135.735 16.0047C136.385 15.4715 137.255 15.202 138.345 15.1961H142.344ZM136.394 18.1141C136.394 18.577 136.552 18.952 136.868 19.2391C137.185 19.5203 137.604 19.6639 138.125 19.6698H140.709V16.5145H138.371C137.768 16.5145 137.287 16.6639 136.93 16.9627C136.573 17.2557 136.394 17.6395 136.394 18.1141Z" fill="white"/>
</svg>
