<svg width="169" height="38" viewBox="0 0 169 38" fill="none" xmlns="http://www.w3.org/2000/svg">
<rect width="169" height="38" rx="19" fill="#E20620"/>
<path d="M60.4854 25V12.2031H64.6689C66.0576 12.2031 67.1006 12.4902 67.7979 13.0645C68.501 13.6387 68.8525 14.4883 68.8525 15.6133C68.8525 16.2109 68.6826 16.7412 68.3428 17.2041C68.0029 17.6611 67.54 18.0156 66.9541 18.2676C67.6455 18.4609 68.1904 18.8301 68.5889 19.375C68.9932 19.9141 69.1953 20.5586 69.1953 21.3086C69.1953 22.457 68.8232 23.3594 68.0791 24.0156C67.335 24.6719 66.2832 25 64.9238 25H60.4854ZM62.1729 19.0146V23.6201H64.959C65.7441 23.6201 66.3623 23.418 66.8135 23.0137C67.2705 22.6035 67.499 22.041 67.499 21.3262C67.499 19.7852 66.6611 19.0146 64.9854 19.0146H62.1729ZM62.1729 17.6611H64.7217C65.46 17.6611 66.0488 17.4766 66.4883 17.1074C66.9336 16.7383 67.1562 16.2373 67.1562 15.6045C67.1562 14.9014 66.9512 14.3916 66.541 14.0752C66.1309 13.7529 65.5068 13.5918 64.6689 13.5918H62.1729V17.6611ZM71.0146 20.1572C71.0146 19.2256 71.1963 18.3877 71.5596 17.6436C71.9287 16.8994 72.4385 16.3252 73.0889 15.9209C73.7451 15.5166 74.4922 15.3145 75.3301 15.3145C76.625 15.3145 77.6709 15.7627 78.4678 16.6592C79.2705 17.5557 79.6719 18.748 79.6719 20.2363V20.3506C79.6719 21.2764 79.4932 22.1084 79.1357 22.8467C78.7842 23.5791 78.2773 24.1504 77.6152 24.5605C76.959 24.9707 76.2031 25.1758 75.3477 25.1758C74.0586 25.1758 73.0127 24.7275 72.21 23.8311C71.4131 22.9346 71.0146 21.748 71.0146 20.2715V20.1572ZM72.6494 20.3506C72.6494 21.4053 72.8926 22.252 73.3789 22.8906C73.8711 23.5293 74.5273 23.8486 75.3477 23.8486C76.1738 23.8486 76.8301 23.5264 77.3164 22.8818C77.8027 22.2314 78.0459 21.3232 78.0459 20.1572C78.0459 19.1143 77.7969 18.2705 77.2988 17.626C76.8066 16.9756 76.1504 16.6504 75.3301 16.6504C74.5273 16.6504 73.8799 16.9697 73.3877 17.6084C72.8955 18.2471 72.6494 19.1611 72.6494 20.3506ZM87.8633 15.4902H89.4893V25H87.8633V18.0654L83.4775 25H81.8516V15.4902H83.4775V22.4336L87.8633 15.4902ZM88.3027 12.0273C88.3027 12.7363 88.0596 13.3076 87.5732 13.7412C87.0928 14.1689 86.46 14.3828 85.6748 14.3828C84.8896 14.3828 84.2539 14.166 83.7676 13.7324C83.2812 13.2988 83.0381 12.7305 83.0381 12.0273H84.3652C84.3652 12.4375 84.4766 12.7598 84.6992 12.9941C84.9219 13.2227 85.2471 13.3369 85.6748 13.3369C86.085 13.3369 86.4043 13.2227 86.6328 12.9941C86.8672 12.7656 86.9844 12.4434 86.9844 12.0273H88.3027ZM99.166 16.8086H95.9756V25H94.3496V16.8086H91.2207V15.4902H99.166V16.8086ZM106.9 15.4902H108.526V25H106.9V18.0654L102.515 25H100.889V15.4902H102.515V22.4336L106.9 15.4902Z" fill="white"/>
</svg>
