<svg width="176" height="49" viewBox="0 0 176 49" fill="none" xmlns="http://www.w3.org/2000/svg">
<path d="M68.0032 19.3147V35.2146H65.9865V32.4818C65.1291 33.5242 64.1646 34.3085 63.0929 34.8346C62.031 35.3607 60.8668 35.6237 59.6002 35.6237C57.3497 35.6237 55.4255 34.8102 53.8277 33.1832C52.2397 31.5465 51.4457 29.559 51.4457 27.2208C51.4457 24.9313 52.2494 22.973 53.857 21.346C55.4645 19.719 57.3984 18.9055 59.6587 18.9055C60.9642 18.9055 62.143 19.1831 63.1952 19.7385C64.2572 20.2938 65.1876 21.1268 65.9865 22.2374V19.3147H68.0032ZM59.8194 20.8784C58.6795 20.8784 57.6273 21.1609 56.6628 21.726C55.6983 22.2813 54.9287 23.0656 54.3538 24.0788C53.7888 25.092 53.5062 26.1637 53.5062 27.2938C53.5062 28.4142 53.7936 29.4859 54.3685 30.5089C54.9433 31.5319 55.7129 32.3308 56.6774 32.9056C57.6517 33.4706 58.6942 33.7532 59.8048 33.7532C60.9252 33.7532 61.9871 33.4706 62.9906 32.9056C63.9941 32.3405 64.7638 31.5757 65.2996 30.6112C65.8452 29.6467 66.118 28.5604 66.118 27.3523C66.118 25.511 65.5091 23.9716 64.2913 22.7343C63.0832 21.497 61.5926 20.8784 59.8194 20.8784Z" fill="#F8F8F8"/>
<path d="M72.6066 19.3147H74.6379V22.0621C75.3491 21.0488 76.0798 20.3084 76.83 19.8408C77.8627 19.2172 78.949 18.9055 80.0889 18.9055C80.8585 18.9055 81.5892 19.0565 82.2809 19.3585C82.9727 19.6605 83.5377 20.0648 83.9761 20.5715C84.4146 21.0683 84.7945 21.7844 85.116 22.7197C85.798 21.4727 86.6505 20.5276 87.6735 19.8846C88.6964 19.2319 89.7973 18.9055 90.9762 18.9055C92.0771 18.9055 93.0465 19.1831 93.8843 19.7385C94.732 20.2938 95.3603 21.0683 95.7695 22.0621C96.1787 23.0558 96.3833 24.5464 96.3833 26.5339V35.2146H94.2935V26.5339C94.2935 24.829 94.1718 23.6599 93.9282 23.0266C93.6846 22.3836 93.2657 21.8672 92.6714 21.4775C92.0868 21.0878 91.3854 20.893 90.567 20.893C89.5733 20.893 88.6623 21.1852 87.8342 21.7698C87.0158 22.3544 86.4167 23.1338 86.0367 24.108C85.6567 25.0823 85.4668 26.7093 85.4668 28.989V35.2146H83.4354V27.0746C83.4354 25.1553 83.3137 23.8547 83.0701 23.1727C82.8363 22.481 82.4222 21.9306 81.8279 21.5214C81.2336 21.1024 80.5273 20.893 79.7089 20.893C78.7639 20.893 77.8773 21.1804 77.0492 21.7552C76.2308 22.3203 75.6219 23.085 75.2224 24.0496C74.8327 25.0141 74.6379 26.4901 74.6379 28.4776V35.2146H72.6066V19.3147Z" fill="#F8F8F8"/>
<path d="M114.095 29.939L115.82 30.845C115.255 31.9557 114.602 32.852 113.862 33.534C113.121 34.2159 112.288 34.7372 111.363 35.0976C110.437 35.4484 109.39 35.6237 108.221 35.6237C105.629 35.6237 103.603 34.7761 102.141 33.0809C100.68 31.376 99.9491 29.4518 99.9491 27.3085C99.9491 25.2917 100.568 23.4942 101.805 21.9159C103.374 19.909 105.473 18.9055 108.104 18.9055C110.812 18.9055 112.975 19.9333 114.592 21.989C115.742 23.4407 116.326 25.2528 116.346 27.4254H102.053C102.092 29.2765 102.682 30.7963 103.822 31.9849C104.962 33.1637 106.369 33.7532 108.045 33.7532C108.854 33.7532 109.638 33.6119 110.398 33.3294C111.168 33.0468 111.82 32.6717 112.356 32.2041C112.892 31.7365 113.472 30.9814 114.095 29.939ZM114.095 25.6571C113.823 24.5659 113.423 23.694 112.897 23.0412C112.381 22.3885 111.694 21.8624 110.836 21.4629C109.979 21.0635 109.078 20.8637 108.133 20.8637C106.574 20.8637 105.234 21.3655 104.114 22.369C103.296 23.0997 102.677 24.1957 102.258 25.6571H114.095Z" fill="#F8F8F8"/>
<path d="M120.511 35.2146V13.7176H124.968C128.183 13.7176 130.516 13.9757 131.968 14.4921C134.053 15.2228 135.68 16.4893 136.849 18.2917C138.028 20.0941 138.617 22.2423 138.617 24.7364C138.617 26.8895 138.15 28.7845 137.214 30.4212C136.289 32.058 135.081 33.266 133.59 34.0454C132.109 34.8249 130.029 35.2146 127.35 35.2146H120.511ZM122.571 33.1832H125.056C128.027 33.1832 130.088 32.9981 131.237 32.6279C132.855 32.1018 134.126 31.1568 135.052 29.7928C135.977 28.4191 136.44 26.7434 136.44 24.7656C136.44 22.6905 135.938 20.9173 134.935 19.4462C133.931 17.9751 132.533 16.9667 130.741 16.4211C129.396 16.0119 127.18 15.8073 124.091 15.8073H122.571V33.1832Z" fill="#F8F8F8"/>
<path d="M155.833 29.939L157.557 30.845C156.992 31.9557 156.339 32.852 155.599 33.534C154.858 34.2159 154.025 34.7372 153.1 35.0976C152.174 35.4484 151.127 35.6237 149.958 35.6237C147.366 35.6237 145.34 34.7761 143.878 33.0809C142.417 31.376 141.686 29.4518 141.686 27.3085C141.686 25.2917 142.305 23.4942 143.542 21.9159C145.111 19.909 147.21 18.9055 149.841 18.9055C152.549 18.9055 154.712 19.9333 156.329 21.989C157.479 23.4407 158.064 25.2528 158.083 27.4254H143.791C143.83 29.2765 144.419 30.7963 145.559 31.9849C146.699 33.1637 148.107 33.7532 149.782 33.7532C150.591 33.7532 151.375 33.6119 152.135 33.3294C152.905 33.0468 153.558 32.6717 154.093 32.2041C154.629 31.7365 155.209 30.9814 155.833 29.939ZM155.833 25.6571C155.56 24.5659 155.16 23.694 154.634 23.0412C154.118 22.3885 153.431 21.8624 152.574 21.4629C151.716 21.0635 150.815 20.8637 149.87 20.8637C148.311 20.8637 146.972 21.3655 145.851 22.369C145.033 23.0997 144.414 24.1957 143.995 25.6571H155.833Z" fill="#F8F8F8"/>
<path d="M160.407 19.3147H162.584L167.904 30.8889L173.179 19.3147H175.371L168.094 35.2146H167.728L160.407 19.3147Z" fill="#F8F8F8"/>
<rect width="48.6349" height="48.6349" rx="24.3175" fill="#F0052F"/>
<path d="M36.6888 15.1188L32.9933 18.7389C30.6547 16.2883 27.9285 15.0631 24.8145 15.0631C22.1007 15.0631 19.8247 15.9542 17.9863 17.7364C16.1605 19.5186 15.2475 21.6844 15.2475 24.2339C15.2475 26.8701 16.198 29.104 18.0989 30.9357C19.9998 32.7674 22.3446 33.6833 25.1334 33.6833C26.9467 33.6833 28.4725 33.3058 29.7105 32.5508C30.9611 31.7959 31.9678 30.6139 32.7307 29.005H24.7395V24.1226H38.621L38.6585 25.2736C38.6585 27.6622 38.0332 29.9271 36.7826 32.0682C35.532 34.2093 33.9125 35.8429 31.9241 36.9692C29.9356 38.0954 27.6033 38.6586 24.9271 38.6586C22.0632 38.6586 19.5058 38.0459 17.2547 36.8207C15.0162 35.583 13.2403 33.8256 11.9272 31.5484C10.6266 29.2711 9.97632 26.8144 9.97632 24.1782C9.97632 20.5644 11.1831 17.4208 13.5968 14.7475C16.4606 11.5668 20.1873 9.97641 24.777 9.97641C27.1781 9.97641 29.4229 10.4158 31.5114 11.2945C33.2747 12.0371 35.0005 13.3118 36.6888 15.1188Z" fill="white"/>
<path d="M82.1628 42.0697L81.5271 42.5574C81.1763 42.1007 80.7543 41.7555 80.2611 41.5217C79.7716 41.2842 79.2327 41.1654 78.6445 41.1654C78.0015 41.1654 77.4059 41.3207 76.8579 41.6313C76.3099 41.9382 75.8843 42.3528 75.581 42.8753C75.2814 43.3941 75.1317 43.9786 75.1317 44.6289C75.1317 45.6117 75.4678 46.4319 76.14 47.0895C76.8159 47.7472 77.6672 48.076 78.6938 48.076C79.8227 48.076 80.7671 47.6339 81.5271 46.7498L82.1628 47.232C81.7609 47.7435 81.2585 48.1399 80.6557 48.4212C80.0565 48.6989 79.3861 48.8377 78.6445 48.8377C77.2342 48.8377 76.1217 48.3683 75.307 47.4293C74.6238 46.6365 74.2822 45.6793 74.2822 44.5577C74.2822 43.3776 74.6951 42.3857 75.5208 41.5819C76.3501 40.7745 77.3877 40.3708 78.6335 40.3708C79.3861 40.3708 80.0657 40.5206 80.6721 40.8202C81.2786 41.1161 81.7755 41.5326 82.1628 42.0697Z" fill="#CCCCCC"/>
<path d="M91.4425 40.3708C92.6627 40.3708 93.6839 40.7782 94.5059 41.5929C95.3279 42.4076 95.739 43.4105 95.739 44.6015C95.739 45.7816 95.3279 46.7827 94.5059 47.6047C93.6875 48.4267 92.6883 48.8377 91.5082 48.8377C90.3136 48.8377 89.3052 48.4285 88.4832 47.6102C87.6611 46.7918 87.2501 45.8017 87.2501 44.6399C87.2501 43.8654 87.4365 43.1475 87.8091 42.4862C88.1854 41.8249 88.6969 41.3079 89.3436 40.9353C89.9902 40.559 90.6899 40.3708 91.4425 40.3708ZM91.4808 41.16C90.8853 41.16 90.3209 41.3152 89.7875 41.6258C89.2541 41.9363 88.8376 42.3547 88.538 42.8808C88.2384 43.4068 88.0886 43.9932 88.0886 44.6399C88.0886 45.5971 88.4192 46.4063 89.0805 47.0676C89.7454 47.7252 90.5456 48.0541 91.4808 48.0541C92.1056 48.0541 92.6828 47.9024 93.2126 47.5992C93.746 47.296 94.1607 46.8813 94.4566 46.3552C94.7562 45.8291 94.906 45.2445 94.906 44.6015C94.906 43.9622 94.7562 43.3849 94.4566 42.8698C94.1607 42.351 93.7423 41.9363 93.2016 41.6258C92.6609 41.3152 92.0873 41.16 91.4808 41.16Z" fill="#CCCCCC"/>
<path d="M100.804 48.635L101.95 40.5736H102.081L105.358 47.1882L108.603 40.5736H108.734L109.891 48.635H109.096L108.307 42.8698L105.457 48.635H105.254L102.366 42.8259L101.583 48.635H100.804Z" fill="#CCCCCC"/>
<path d="M114.934 48.635L116.079 40.5736H116.211L119.488 47.1882L122.732 40.5736H122.864L124.02 48.635H123.226L122.437 42.8698L119.587 48.635H119.384L116.496 42.8259L115.712 48.635H114.934Z" fill="#CCCCCC"/>
<path d="M129.458 40.5736H130.264V45.44C130.264 46.0173 130.275 46.3771 130.297 46.5196C130.337 46.8375 130.43 47.1042 130.576 47.3197C130.723 47.5316 130.947 47.7106 131.25 47.8568C131.554 47.9993 131.859 48.0705 132.166 48.0705C132.432 48.0705 132.688 48.0139 132.933 47.9006C133.178 47.7874 133.382 47.6303 133.547 47.4293C133.711 47.2284 133.832 46.9854 133.908 46.7004C133.963 46.4959 133.991 46.0757 133.991 45.44V40.5736H134.796V45.44C134.796 46.1597 134.725 46.7425 134.582 47.1882C134.444 47.6303 134.162 48.0157 133.738 48.3445C133.318 48.6733 132.809 48.8377 132.209 48.8377C131.559 48.8377 131.002 48.6825 130.538 48.3719C130.074 48.0614 129.763 47.6504 129.606 47.1389C129.508 46.8247 129.458 46.2584 129.458 45.44V40.5736Z" fill="#CCCCCC"/>
<path d="M140.607 48.635V40.5736H140.782L146.142 46.7443V40.5736H146.937V48.635H146.756L141.44 42.541V48.635H140.607Z" fill="#CCCCCC"/>
<path d="M152.61 40.5736H153.416V48.635H152.61V40.5736Z" fill="#CCCCCC"/>
<path d="M158.284 41.3573V40.5736H162.707V41.3573H160.909V48.635H160.087V41.3573H158.284Z" fill="#CCCCCC"/>
<path d="M167.043 40.5736H167.975L170.035 43.8946L172.063 40.5736H172.995L170.441 44.7824V48.635H169.646V44.7824L167.043 40.5736Z" fill="#CCCCCC"/>
</svg>
