<svg width="22" height="19" viewBox="0 0 22 19" fill="none" xmlns="http://www.w3.org/2000/svg">
<path d="M18.6923 1H3.30769C2.03319 1 1 2.03319 1 3.30769V15.6154C1 16.8899 2.03319 17.9231 3.30769 17.9231H18.6923C19.9668 17.9231 21 16.8899 21 15.6154V3.30769C21 2.03319 19.9668 1 18.6923 1Z" stroke="#8F8F8F" stroke-linejoin="round"/>
<path d="M14.8461 7.15383C15.6957 7.15383 16.3845 6.46503 16.3845 5.61537C16.3845 4.7657 15.6957 4.0769 14.8461 4.0769C13.9964 4.0769 13.3076 4.7657 13.3076 5.61537C13.3076 6.46503 13.9964 7.15383 14.8461 7.15383Z" stroke="#8F8F8F" stroke-miterlimit="10"/>
<path d="M13.3077 13.2976L8.94904 8.94713C8.67168 8.66983 8.2989 8.50894 7.90687 8.49732C7.51485 8.4857 7.13319 8.62424 6.8399 8.88463L1 14.0769" stroke="#8F8F8F" stroke-linecap="round" stroke-linejoin="round"/>
<path d="M9.46143 17.9231L15.3912 11.9933C15.6624 11.7216 16.0254 11.5611 16.4089 11.5433C16.7924 11.5255 17.1687 11.6517 17.4638 11.8972L20.9999 14.8462" stroke="#8F8F8F" stroke-linecap="round" stroke-linejoin="round"/>
</svg>
