<svg width="19" height="19" viewBox="0 0 19 19" fill="none" xmlns="http://www.w3.org/2000/svg">
<path d="M13.4582 1.58319C14.5071 1.58632 15.5122 2.0044 16.2539 2.7461C16.9956 3.48781 17.4137 4.49288 17.4168 5.54181V13.4582C17.4137 14.5071 16.9956 15.5122 16.2539 16.2539C15.5122 16.9956 14.5071 17.4137 13.4582 17.4168H5.54181C4.49288 17.4137 3.48781 16.9956 2.7461 16.2539C2.0044 15.5122 1.58632 14.5071 1.58319 13.4582V5.54181C1.58632 4.49288 2.0044 3.48781 2.7461 2.7461C3.48781 2.0044 4.49288 1.58632 5.54181 1.58319H13.4582ZM13.4582 0H5.54181C2.49375 0 0 2.49375 0 5.54181V13.4582C0 16.5062 2.49375 19 5.54181 19H13.4582C16.5062 19 19 16.5062 19 13.4582V5.54181C19 2.49375 16.5062 0 13.4582 0Z" fill="#E3E3E3"/>
<path d="M14.6457 5.54181C14.4108 5.54181 14.1812 5.47216 13.986 5.34168C13.7907 5.2112 13.6385 5.02573 13.5486 4.80875C13.4587 4.59176 13.4352 4.35299 13.481 4.12264C13.5268 3.89229 13.6399 3.68069 13.806 3.51462C13.9721 3.34855 14.1837 3.23545 14.414 3.18963C14.6444 3.14381 14.8831 3.16732 15.1001 3.2572C15.3171 3.34708 15.5026 3.49929 15.6331 3.69457C15.7635 3.88985 15.8332 4.11944 15.8332 4.35431C15.8335 4.51035 15.803 4.66492 15.7435 4.80914C15.6839 4.95337 15.5965 5.08441 15.4861 5.19475C15.3758 5.30508 15.2448 5.39254 15.1005 5.4521C14.9563 5.51166 14.8017 5.54214 14.6457 5.54181Z" fill="#E3E3E3"/>
<path d="M9.5 6.33319C10.1263 6.33319 10.7386 6.51892 11.2594 6.8669C11.7802 7.21487 12.1861 7.70946 12.4258 8.28812C12.6654 8.86677 12.7282 9.50351 12.606 10.1178C12.4838 10.7321 12.1822 11.2964 11.7393 11.7393C11.2964 12.1822 10.7321 12.4838 10.1178 12.606C9.50351 12.7282 8.86678 12.6654 8.28812 12.4258C7.70946 12.1861 7.21487 11.7802 6.8669 11.2594C6.51892 10.7386 6.33319 10.1263 6.33319 9.5C6.33409 8.66039 6.66803 7.85542 7.26172 7.26172C7.85542 6.66802 8.66039 6.33409 9.5 6.33319ZM9.5 4.75C8.56054 4.75 7.64218 5.02858 6.86104 5.55052C6.07991 6.07246 5.47109 6.8143 5.11157 7.68225C4.75206 8.5502 4.65799 9.50527 4.84127 10.4267C5.02455 11.3481 5.47695 12.1945 6.14124 12.8588C6.80554 13.5231 7.65191 13.9755 8.57332 14.1587C9.49473 14.342 10.4498 14.2479 11.3177 13.8884C12.1857 13.5289 12.9275 12.9201 13.4495 12.139C13.9714 11.3578 14.25 10.4395 14.25 9.5C14.25 8.24022 13.7496 7.03204 12.8588 6.14124C11.968 5.25045 10.7598 4.75 9.5 4.75Z" fill="#E3E3E3"/>
</svg>
