<svg width="16" height="15" viewBox="0 0 16 15" fill="none" xmlns="http://www.w3.org/2000/svg">
<path d="M11.5411 0C10.0167 0 8.71418 1.16585 7.99855 1.96962C7.28291 1.16585 5.98327 0 4.45964 0C1.83345 0 0 1.96416 0 4.77578C0 7.87379 2.27709 9.87618 4.48 11.813C5.52 12.7284 6.59636 13.6742 7.42182 14.723C7.56073 14.8986 7.76436 15 7.97818 15H8.02036C8.23491 15 8.43782 14.8978 8.576 14.723C9.40291 13.6742 10.4785 12.7276 11.5193 11.813C13.7215 9.87696 16 7.87457 16 4.77578C16 1.96416 14.1665 0 11.5411 0Z" fill="#F44336"/>
</svg>
