<svg id="Слой_1" data-name="Слой 1" xmlns="http://www.w3.org/2000/svg" viewBox="0 0 142 39.54"><defs><style>.cls-1{fill:#f8f8f8;}.cls-2{fill:#f0052f;}.cls-3{fill:#fff;}.cls-4{fill:#ccc;}</style></defs><title>Logo</title><path class="cls-1" d="M944.1,536v12.87h-1.63V546.7a7.23,7.23,0,0,1-2.34,1.91,6.59,6.59,0,0,1-7.51-1.34,6.71,6.71,0,0,1-1.92-4.83,6.55,6.55,0,0,1,1.95-4.76,6.39,6.39,0,0,1,4.7-2,6,6,0,0,1,2.86.67,6.56,6.56,0,0,1,2.26,2V536Zm-6.62,1.27a4.93,4.93,0,0,0-2.56.68,5,5,0,0,0-1.87,1.91,5.21,5.21,0,0,0,0,5.2,5.13,5.13,0,0,0,1.87,1.94,5,5,0,0,0,2.53.69A5.14,5.14,0,0,0,940,547a4.63,4.63,0,0,0,1.87-1.85,5.49,5.49,0,0,0-.81-6.38A4.87,4.87,0,0,0,937.48,537.31Z" transform="translate(-889.04 -520.4)"/><path class="cls-1" d="M947.83,536h1.65v2.22a6.14,6.14,0,0,1,1.77-1.79,5,5,0,0,1,2.64-.76,4.45,4.45,0,0,1,1.77.36,3.94,3.94,0,0,1,1.38,1,5.2,5.2,0,0,1,.92,1.74,6,6,0,0,1,2.07-2.3,4.87,4.87,0,0,1,2.67-.79,4.16,4.16,0,0,1,2.36.67,4.07,4.07,0,0,1,1.53,1.88,10.12,10.12,0,0,1,.49,3.62v7h-1.69v-7a9,9,0,0,0-.3-2.84,2.52,2.52,0,0,0-1-1.25,3.06,3.06,0,0,0-1.71-.47,3.71,3.71,0,0,0-2.21.71,4.11,4.11,0,0,0-1.46,1.89,12.2,12.2,0,0,0-.46,4v5H956.6v-6.59a10.94,10.94,0,0,0-.3-3.16,2.56,2.56,0,0,0-1-1.33,2.91,2.91,0,0,0-1.72-.51,3.68,3.68,0,0,0-2.15.7,4,4,0,0,0-1.48,1.85,10.1,10.1,0,0,0-.47,3.59v5.45h-1.65Z" transform="translate(-889.04 -520.4)"/><path class="cls-1" d="M981.42,544.64l1.4.74a7.72,7.72,0,0,1-1.59,2.17,6.11,6.11,0,0,1-2,1.27,7.24,7.24,0,0,1-2.54.42,6.18,6.18,0,0,1-4.93-2,7,7,0,0,1-1.77-4.68,6.87,6.87,0,0,1,1.5-4.36,6.13,6.13,0,0,1,5.1-2.44,6.35,6.35,0,0,1,5.26,2.49,7,7,0,0,1,1.42,4.41H971.67a5.29,5.29,0,0,0,1.44,3.69,4.57,4.57,0,0,0,3.42,1.43,5.52,5.52,0,0,0,3.49-1.25A7.69,7.69,0,0,0,981.42,544.64Zm0-3.47a5.37,5.37,0,0,0-1-2.11,4.4,4.4,0,0,0-1.66-1.28,5.22,5.22,0,0,0-2.19-.49,4.73,4.73,0,0,0-3.26,1.22,5.53,5.53,0,0,0-1.5,2.66Z" transform="translate(-889.04 -520.4)"/><path class="cls-1" d="M986.62,548.91v-17.4h3.61a18.79,18.79,0,0,1,5.67.62,7.63,7.63,0,0,1,4,3.08,9.36,9.36,0,0,1,1.43,5.22,9.07,9.07,0,0,1-1.14,4.6,7.09,7.09,0,0,1-2.93,2.94,11,11,0,0,1-5.05.94Zm1.67-1.64h2a18.65,18.65,0,0,0,5-.45,5.79,5.79,0,0,0,3.09-2.3,7.11,7.11,0,0,0,1.13-4.07,7.45,7.45,0,0,0-1.22-4.3,6.09,6.09,0,0,0-3.4-2.45,20.52,20.52,0,0,0-5.38-.5h-1.23Z" transform="translate(-889.04 -520.4)"/><path class="cls-1" d="M1015.22,544.64l1.4.74a7.72,7.72,0,0,1-1.59,2.17,6.21,6.21,0,0,1-2,1.27,7.25,7.25,0,0,1-2.55.42,6.14,6.14,0,0,1-4.92-2,7,7,0,0,1-1.77-4.68,6.87,6.87,0,0,1,1.5-4.36,6.13,6.13,0,0,1,5.1-2.44,6.35,6.35,0,0,1,5.25,2.49,7,7,0,0,1,1.42,4.41h-11.57a5.28,5.28,0,0,0,1.43,3.69,4.57,4.57,0,0,0,3.42,1.43,5.42,5.42,0,0,0,1.91-.34,5.16,5.16,0,0,0,1.58-.91A7.68,7.68,0,0,0,1015.22,544.64Zm0-3.47a5.37,5.37,0,0,0-1-2.11,4.44,4.44,0,0,0-1.67-1.28,5.15,5.15,0,0,0-2.19-.49,4.72,4.72,0,0,0-3.25,1.22,5.45,5.45,0,0,0-1.5,2.66Z" transform="translate(-889.04 -520.4)"/><path class="cls-1" d="M1018.92,536h1.77l4.3,9.37,4.28-9.37H1031l-5.89,12.87h-.3Z" transform="translate(-889.04 -520.4)"/><path class="cls-2" d="M908.73,520.4h0a19.7,19.7,0,0,1,19.69,19.69h0a19.7,19.7,0,0,1-19.69,19.69h0A19.7,19.7,0,0,1,889,540.09h0A19.7,19.7,0,0,1,908.73,520.4Z" transform="translate(-889.04 -520.4)"/><path class="cls-3" d="M918.75,532.64l-3,2.93a8.92,8.92,0,0,0-6.63-3,7.66,7.66,0,0,0-5.53,2.16,7.1,7.1,0,0,0-2.21,5.26,7.27,7.27,0,0,0,2.3,5.43,7.91,7.91,0,0,0,5.7,2.22,7,7,0,0,0,3.71-.91,6.48,6.48,0,0,0,2.44-2.87h-6.47v-4h11.24l0,.93a10.7,10.7,0,0,1-1.52,5.51,10.52,10.52,0,0,1-3.93,4,11.23,11.23,0,0,1-5.67,1.37,12.68,12.68,0,0,1-6.21-1.49A11.09,11.09,0,0,1,898.7,546a11.8,11.8,0,0,1-1.58-6,11.06,11.06,0,0,1,2.93-7.64,11.63,11.63,0,0,1,9.05-3.86,13.81,13.81,0,0,1,5.46,1.07A12.6,12.6,0,0,1,918.75,532.64Z" transform="translate(-889.04 -520.4)"/><path class="cls-4" d="M955.57,554.46l-.52.4a2.74,2.74,0,0,0-1-.84,3,3,0,0,0-1.31-.29,2.93,2.93,0,0,0-1.45.38,2.63,2.63,0,0,0-1,1,2.81,2.81,0,0,0-.37,1.42,2.69,2.69,0,0,0,.82,2,3,3,0,0,0,4.36-.28l.52.39a3.31,3.31,0,0,1-1.22,1,3.92,3.92,0,0,1-1.63.33,3.36,3.36,0,0,1-3.53-3.46,3.21,3.21,0,0,1,1-2.41,3.48,3.48,0,0,1,2.52-1,3.7,3.7,0,0,1,1.65.36A3.3,3.3,0,0,1,955.57,554.46Z" transform="translate(-889.04 -520.4)"/><path class="cls-4" d="M963.08,553.09a3.37,3.37,0,0,1,2.48,1,3.27,3.27,0,0,1,1,2.43,3.45,3.45,0,0,1-5.87,2.44,3.24,3.24,0,0,1-1-2.4,3.54,3.54,0,0,1,.45-1.75,3.39,3.39,0,0,1,2.94-1.71Zm0,.64a2.69,2.69,0,0,0-1.37.37,2.82,2.82,0,0,0-1,1,2.87,2.87,0,0,0-.36,1.43,2.64,2.64,0,0,0,.8,2,2.68,2.68,0,0,0,1.94.8,2.75,2.75,0,0,0,1.41-.37,2.56,2.56,0,0,0,1-1,2.87,2.87,0,0,0,0-2.82,2.76,2.76,0,0,0-2.41-1.38Z" transform="translate(-889.04 -520.4)"/><path class="cls-4" d="M970.66,559.78l.93-6.53h.11l2.65,5.36,2.63-5.36h.1l.94,6.53h-.64l-.64-4.67-2.31,4.67h-.16l-2.34-4.7-.64,4.7Z" transform="translate(-889.04 -520.4)"/><path class="cls-4" d="M982.1,559.78l.93-6.53h.11l2.65,5.36,2.63-5.36h.1l.94,6.53h-.64l-.64-4.67-2.31,4.67h-.16l-2.34-4.7-.64,4.7Z" transform="translate(-889.04 -520.4)"/><path class="cls-4" d="M993.86,553.25h.66v3.94c0,.47,0,.76,0,.88a1.62,1.62,0,0,0,.23.65,1.37,1.37,0,0,0,.55.43,1.63,1.63,0,0,0,.74.17,1.5,1.5,0,0,0,.62-.13,1.35,1.35,0,0,0,.49-.39,1.44,1.44,0,0,0,.3-.59,5.32,5.32,0,0,0,.06-1v-3.94h.66v3.94a4.59,4.59,0,0,1-.18,1.42,1.92,1.92,0,0,1-.68.94,2,2,0,0,1-1.24.39,2.38,2.38,0,0,1-1.35-.37,1.83,1.83,0,0,1-.76-1,5.31,5.31,0,0,1-.12-1.38Z" transform="translate(-889.04 -520.4)"/><path class="cls-4" d="M1002.89,559.78v-6.53h.14l4.34,5v-5h.65v6.53h-.15l-4.3-4.93v4.93Z" transform="translate(-889.04 -520.4)"/><path class="cls-4" d="M1012.61,553.25h.65v6.53h-.65Z" transform="translate(-889.04 -520.4)"/><path class="cls-4" d="M1017.2,553.89v-.64h3.59v.64h-1.46v5.89h-.67v-5.89Z" transform="translate(-889.04 -520.4)"/><path class="cls-4" d="M1024.3,553.25h.75l1.67,2.69,1.64-2.69h.76l-2.07,3.41v3.12h-.65v-3.12Z" transform="translate(-889.04 -520.4)"/></svg>