<svg width="40" height="40" viewBox="0 0 40 40" fill="none" xmlns="http://www.w3.org/2000/svg">
<rect width="40" height="40" rx="20" fill="#F0052F"/>
<path d="M30.7143 12.6654L27.6221 15.6945C25.6653 13.644 23.384 12.6188 20.7784 12.6188C18.5076 12.6188 16.6031 13.3644 15.0649 14.8557C13.5371 16.347 12.7732 18.1593 12.7732 20.2926C12.7732 22.4984 13.5685 24.3677 15.159 25.9004C16.7496 27.433 18.7117 28.1994 21.0452 28.1994C22.5626 28.1994 23.8392 27.8835 24.8752 27.2518C25.9216 26.6201 26.764 25.6311 27.4023 24.2848H20.7156V20.1994H32.331L32.3624 21.1625C32.3624 23.1612 31.8392 25.0563 30.7928 26.8479C29.7464 28.6395 28.3912 30.0065 26.7274 30.9489C25.0636 31.8913 23.112 32.3625 20.8726 32.3625C18.4762 32.3625 16.3363 31.8499 14.4527 30.8246C12.5796 29.789 11.0936 28.3185 9.99488 26.413C8.90659 24.5075 8.36244 22.4518 8.36244 20.246C8.36244 17.222 9.37225 14.5916 11.3919 12.3547C13.7882 9.69323 16.9066 8.36249 20.747 8.36249C22.7562 8.36249 24.6345 8.73013 26.3821 9.4654C27.8575 10.0868 29.3016 11.1534 30.7143 12.6654Z" fill="white"/>
</svg>
