<svg width="21" height="16" viewBox="0 0 21 16" fill="none" xmlns="http://www.w3.org/2000/svg">
<path d="M10 15.5C10.2761 15.5 10.5 15.2761 10.5 15C10.5 14.7238 10.2761 14.5 10 14.5L10 15.5ZM6.00001 15L6.00001 14.5L6.00001 15ZM4 13L4.5 13L4 13ZM4.35355 0.646447C4.15829 0.451185 3.84171 0.451185 3.64645 0.646447L0.464467 3.82843C0.269205 4.02369 0.269205 4.34027 0.464467 4.53554C0.659729 4.7308 0.976312 4.7308 1.17157 4.53554L4 1.70711L6.82843 4.53553C7.02369 4.7308 7.34027 4.7308 7.53554 4.53553C7.7308 4.34027 7.7308 4.02369 7.53553 3.82843L4.35355 0.646447ZM10 14.5L6.00001 14.5L6.00001 15.5L10 15.5L10 14.5ZM4.5 13L4.5 1L3.5 1L3.5 13L4.5 13ZM6.00001 14.5C5.17158 14.5 4.5 13.8284 4.5 13L3.5 13C3.5 14.3807 4.61929 15.5 6.00001 15.5L6.00001 14.5Z" fill="#C1C1C1"/>
<path d="M11 0.500021C10.7239 0.500022 10.5 0.72388 10.5 1.00002C10.5 1.27616 10.7239 1.50002 11 1.50002L11 0.500021ZM15 1.00001L15 1.50001L15 1.00001ZM17 3.00001L16.5 3.00001L17 3.00001ZM16.6464 15.3536C16.8417 15.5488 17.1583 15.5488 17.3536 15.3536L20.5355 12.1716C20.7308 11.9763 20.7308 11.6597 20.5355 11.4645C20.3403 11.2692 20.0237 11.2692 19.8284 11.4645L17 14.2929L14.1716 11.4645C13.9763 11.2692 13.6597 11.2692 13.4645 11.4645C13.2692 11.6597 13.2692 11.9763 13.4645 12.1716L16.6464 15.3536ZM11 1.50002L15 1.50001L15 0.500007L11 0.500021L11 1.50002ZM16.5 3.00001L16.5 15L17.5 15L17.5 3.00001L16.5 3.00001ZM15 1.50001C15.8284 1.5 16.5 2.17158 16.5 3.00001L17.5 3.00001C17.5 1.61929 16.3807 0.500002 15 0.500007L15 1.50001Z" fill="#C1C1C1"/>
</svg>
