<svg width="20" height="20" viewBox="0 0 20 20" fill="none" xmlns="http://www.w3.org/2000/svg">
<path d="M18.75 8.10547L17.1484 7.75391C17.0312 7.3763 16.875 6.99219 16.6797 6.60156L17.5391 5.15625C17.6562 4.97396 17.7441 4.7819 17.8027 4.58008C17.8613 4.37826 17.8711 4.16667 17.832 3.94531C17.793 3.72396 17.6953 3.53516 17.5391 3.37891L16.6602 2.5C16.543 2.38281 16.403 2.29492 16.2402 2.23633C16.0775 2.17773 15.9147 2.15169 15.752 2.1582C15.5892 2.16471 15.4297 2.19401 15.2734 2.24609C15.1172 2.29818 14.974 2.36328 14.8438 2.44141L13.4375 3.33984L13.2812 3.26172L13.125 3.18359L12.9688 3.11523L12.8027 3.04688L12.6367 2.97852L12.4707 2.91992L12.3047 2.87109L11.9531 1.23047C11.888 0.917969 11.7318 0.634766 11.4844 0.380859C11.237 0.126953 10.9505 0 10.625 0H9.375C9.04948 0 8.7793 0.123698 8.56445 0.371094C8.34961 0.61849 8.20312 0.911458 8.125 1.25L7.71484 2.85156C7.50651 2.91667 7.30143 2.99154 7.09961 3.07617C6.89779 3.16081 6.69922 3.25521 6.50391 3.35938L5.05859 2.44141C4.88932 2.32422 4.69727 2.24284 4.48242 2.19727C4.26758 2.15169 4.04948 2.15169 3.82812 2.19727C3.60677 2.24284 3.41797 2.34375 3.26172 2.5L2.36328 3.37891C2.14193 3.66536 2.04102 3.95833 2.06055 4.25781C2.08008 4.55729 2.18099 4.85677 2.36328 5.15625L3.28125 6.67969C3.09896 7.05729 2.95573 7.41536 2.85156 7.75391L1.25 8.10547C0.924479 8.17057 0.634766 8.32357 0.380859 8.56445C0.126953 8.80534 0 9.09505 0 9.43359V10.6836C0 10.9961 0.123698 11.263 0.371094 11.4844C0.61849 11.7057 0.911458 11.8555 1.25 11.9336L2.87109 12.3242C2.97526 12.6497 3.11198 12.9818 3.28125 13.3203L2.36328 14.8438C2.18099 15.1432 2.08008 15.4427 2.06055 15.7422C2.04102 16.0417 2.14193 16.3346 2.36328 16.6211L3.26172 17.5C3.52214 17.7344 3.82161 17.8483 4.16016 17.8418C4.4987 17.8353 4.79818 17.7409 5.05859 17.5586L6.50391 16.6406L6.73828 16.7578L6.98242 16.8652L7.23633 16.9629L7.49023 17.0605L7.73438 17.1484L8.125 18.75C8.20312 19.0885 8.35286 19.3815 8.57422 19.6289C8.79557 19.8763 9.0625 20 9.375 20H10.625C10.8464 20 11.0547 19.9382 11.25 19.8145C11.4453 19.6908 11.6016 19.5345 11.7188 19.3457C11.8359 19.1569 11.9141 18.9583 11.9531 18.75L12.3047 17.1289C12.6953 17.0117 13.0729 16.8555 13.4375 16.6602L14.8438 17.5586C15.1172 17.7409 15.4232 17.8353 15.7617 17.8418C16.1003 17.8483 16.3997 17.7344 16.6602 17.5L17.5391 16.6211C17.7604 16.3346 17.8613 16.0417 17.8418 15.7422C17.8223 15.4427 17.7214 15.1432 17.5391 14.8438L16.6797 13.3984C16.862 13.0469 17.0117 12.6888 17.1289 12.3242L18.75 11.9336C19.0885 11.8555 19.3815 11.7057 19.6289 11.4844C19.8763 11.263 20 10.9961 20 10.6836V9.43359C20 8.92578 19.7331 8.53516 19.1992 8.26172C19.056 8.18359 18.9062 8.13151 18.75 8.10547ZM18.75 10.5859C18.737 10.599 18.7174 10.612 18.6914 10.625C18.6654 10.638 18.6328 10.651 18.5938 10.6641L18.4766 10.7031L16.1523 11.2891L15.9375 11.9336C15.8854 12.0898 15.8301 12.2428 15.7715 12.3926C15.7129 12.5423 15.6445 12.6888 15.5664 12.832L15.2539 13.457L16.4844 15.4883C16.5495 15.6055 16.5885 15.7096 16.6016 15.8008L15.7812 16.6211C15.7292 16.6081 15.6836 16.5918 15.6445 16.5723C15.6055 16.5527 15.5794 16.5365 15.5664 16.5234L13.5156 15.2148L12.8711 15.5469C12.7669 15.599 12.6628 15.6478 12.5586 15.6934L12.2461 15.8301L11.9336 15.9375L11.25 16.1719L10.7422 18.4961C10.7292 18.5482 10.7096 18.597 10.6836 18.6426C10.6576 18.6882 10.6315 18.724 10.6055 18.75H9.47266C9.42057 18.6719 9.38151 18.5807 9.35547 18.4766L8.76953 16.1719L8.10547 15.957C8.06641 15.944 8.0306 15.931 7.99805 15.918C7.96549 15.9049 7.92969 15.8919 7.89062 15.8789L7.77344 15.8398L7.65625 15.791L7.53906 15.7422L7.42188 15.6934L7.31445 15.6445L7.20703 15.5957L7.08984 15.5273L6.44531 15.1953L4.39453 16.5039C4.30339 16.569 4.21875 16.6016 4.14062 16.6016L3.32031 15.8008C3.33333 15.7096 3.3724 15.612 3.4375 15.5078L4.70703 13.3789L4.41406 12.7734C4.27083 12.487 4.15365 12.2135 4.0625 11.9531L3.84766 11.2891L1.5625 10.7031C1.43229 10.6771 1.32812 10.638 1.25 10.5859V9.43359C1.26302 9.43359 1.2793 9.42708 1.29883 9.41406C1.31836 9.40104 1.3444 9.38477 1.37695 9.36523C1.40951 9.3457 1.4388 9.33594 1.46484 9.33594L3.82812 8.80859L4.04297 8.125C4.12109 7.85156 4.23828 7.55208 4.39453 7.22656L4.70703 6.62109L3.4375 4.51172C3.41146 4.45964 3.38542 4.4043 3.35938 4.3457C3.33333 4.28711 3.32031 4.23828 3.32031 4.19922L4.14062 3.37891L4.35547 3.47656L6.44531 4.80469L7.08984 4.47266C7.41536 4.30339 7.75391 4.16016 8.10547 4.04297L8.76953 3.82812L9.33594 1.5625C9.36198 1.43229 9.40755 1.32812 9.47266 1.25H10.625L10.6445 1.30859C10.6576 1.32161 10.6673 1.33464 10.6738 1.34766C10.6803 1.36068 10.6868 1.38021 10.6934 1.40625C10.6999 1.43229 10.7096 1.45182 10.7227 1.46484L11.2305 3.82812L11.9141 4.0625C12.2396 4.16667 12.5586 4.29688 12.8711 4.45312L13.5156 4.78516L15.5273 3.49609C15.6185 3.44401 15.7031 3.41797 15.7812 3.41797L16.6016 4.21875C16.5885 4.24479 16.5755 4.28385 16.5625 4.33594C16.5495 4.38802 16.5234 4.4401 16.4844 4.49219L15.2539 6.54297L15.5664 7.16797C15.6576 7.33724 15.7357 7.5 15.8008 7.65625C15.8659 7.8125 15.918 7.96875 15.957 8.125L16.1719 8.80859L18.4961 9.33594C18.6393 9.36198 18.7305 9.40755 18.7695 9.47266L18.75 10.5859ZM10.0098 6.25C8.97461 6.25 8.08919 6.61458 7.35352 7.34375C6.61784 8.07292 6.25 8.95833 6.25 10C6.25 11.0417 6.61784 11.9271 7.35352 12.6562C8.08919 13.3854 8.97135 13.75 10 13.75C10.5208 13.75 11.0124 13.6523 11.4746 13.457C11.9368 13.2617 12.3372 12.9948 12.6758 12.6562C13.0143 12.3177 13.2812 11.9173 13.4766 11.4551C13.6719 10.9928 13.7695 10.5078 13.7695 10C13.7695 8.95833 13.4017 8.07292 12.666 7.34375C11.9303 6.61458 11.0449 6.25 10.0098 6.25ZM10 12.5C9.3099 12.5 8.7207 12.2559 8.23242 11.7676C7.74414 11.2793 7.5 10.6901 7.5 10C7.5 9.3099 7.74414 8.7207 8.23242 8.23242C8.7207 7.74414 9.3099 7.5 10 7.5C10.6901 7.5 11.2793 7.74414 11.7676 8.23242C12.2559 8.7207 12.5 9.3099 12.5 10C12.5 10.6901 12.2559 11.2793 11.7676 11.7676C11.2793 12.2559 10.6901 12.5 10 12.5Z" fill="#6B6B6B"/>
</svg>
