<svg width="23" height="19" viewBox="0 0 23 19" fill="none" xmlns="http://www.w3.org/2000/svg">
<path d="M23 2.22276C22.8462 2.54474 22.5598 2.95145 22.141 3.44285C21.7222 3.93426 21.2052 4.36639 20.5897 4.7392C20.6068 4.87478 20.6197 5.00186 20.6282 5.12048C20.6946 6.9468 20.2533 8.84165 19.641 10.4203C18.4543 13.3553 16.6358 15.7175 14.0385 17.3214C11.3299 18.8615 8.17552 19.1891 5.26922 18.9101C3.33979 18.6904 1.43813 18.0658 0 16.8893C2.6303 17.201 5.08501 16.314 7.02564 14.8812C4.86992 14.9353 3.30364 13.3894 2.56412 11.6022C2.89748 11.6888 3.24622 11.6784 3.56412 11.6531C3.95543 11.6166 4.32688 11.5802 4.69233 11.5006C3.31775 11.0609 2.115 10.2527 1.4872 9.03494C1.11895 8.26334 0.952679 7.52855 0.94875 6.69643C1.59285 7.0326 2.36762 7.36025 3.07696 7.33188C2.0057 6.43227 1.14688 5.28255 0.987218 3.9639C0.88642 2.86442 1.16395 1.86079 1.56415 0.926383C3.16662 2.67224 4.96461 4.10899 7.0385 4.99336C8.45679 5.56911 9.87106 5.87702 11.3334 5.883C11.1646 4.58822 11.2958 3.336 11.9103 2.27355C12.6335 1.13128 13.6886 0.468549 14.8719 0.138378C16.565 -0.292019 18.2164 0.315937 19.2565 1.48556C20.3782 1.36546 21.4526 0.872174 22.3078 0.367143C21.9444 1.45796 21.2369 2.54254 20.2052 3.06152C21.1874 2.88124 22.1247 2.59298 23 2.22276Z" fill="#E3E3E3"/>
</svg>
