<svg id="Слой_1" data-name="Слой 1" xmlns="http://www.w3.org/2000/svg" viewBox="0 0 23 19"><defs><style>.cls-1{fill:#e3e3e3;}</style></defs><title>twitter</title><path class="cls-1" d="M987,563.62a5.94,5.94,0,0,1-.86,1.22,6.22,6.22,0,0,1-1.55,1.3c0,.13,0,.26,0,.38a14.54,14.54,0,0,1-6.59,12.2,14.84,14.84,0,0,1-8.77,1.59,10.11,10.11,0,0,1-5.27-2,9.91,9.91,0,0,0,7-2A4.83,4.83,0,0,1,966.6,573a2.84,2.84,0,0,0,1,0,7.91,7.91,0,0,0,1.13-.15,5.29,5.29,0,0,1-3.2-2.47,5.17,5.17,0,0,1-.54-2.33,4.57,4.57,0,0,0,2.13.63,5.45,5.45,0,0,1-2.09-3.37,6.16,6.16,0,0,1,.57-3,16.15,16.15,0,0,0,5.48,4.06,11.21,11.21,0,0,0,4.29.89,5.68,5.68,0,0,1,.58-3.61,5,5,0,0,1,3-2.13,4.4,4.4,0,0,1,4.39,1.35,8,8,0,0,0,3.05-1.12,4.62,4.62,0,0,1-2.1,2.69A13.47,13.47,0,0,0,987,563.62Z" transform="translate(-964.04 -561.4)"/></svg>