<svg width="19" height="19" viewBox="0 0 19 19" fill="none" xmlns="http://www.w3.org/2000/svg">
<path d="M9.5 0C4.25315 0 0 4.25315 0 9.5C0 14.7469 4.25315 19 9.5 19C14.7469 19 19 14.7469 19 9.5C19 4.25315 14.7469 0 9.5 0ZM3.3307 6.175H4.73005C5.08725 6.175 5.22215 6.3308 5.35705 6.7184C6.04105 8.7134 7.19625 10.4576 7.6703 10.4576C7.8489 10.4576 7.9306 10.3749 7.9306 9.92275V7.86125C7.87835 6.9122 7.3739 6.83335 7.3739 6.4961C7.3739 6.33935 7.5069 6.175 7.73015 6.175H9.93035C10.2268 6.175 10.3256 6.3327 10.3256 6.68895V9.46295C10.3256 9.75935 10.4585 9.86385 10.5488 9.86385C10.7264 9.86385 10.8737 9.75935 11.1995 9.4335C12.2084 8.30585 12.9219 6.5702 12.9219 6.5702C13.0103 6.36215 13.1737 6.175 13.5299 6.175H14.9292C15.352 6.175 15.4423 6.39255 15.3539 6.68895C15.1763 7.505 13.4691 9.9085 13.4691 9.9085C13.3209 10.146 13.261 10.2648 13.4691 10.5317C13.6173 10.7397 14.1075 11.1539 14.4334 11.5387C15.0347 12.2161 15.4878 12.786 15.6132 13.1793C15.7291 13.5736 15.5296 13.775 15.1287 13.775H13.7303C13.1964 13.775 13.0397 13.3494 12.0906 12.4004C11.2594 11.5995 10.9041 11.495 10.697 11.495C10.4149 11.495 10.3294 11.5748 10.3294 11.9747V13.2316C10.3294 13.5755 10.2191 13.775 9.329 13.775C7.84605 13.775 6.2168 12.8735 5.0597 11.2129C3.325 8.78085 2.85 6.9407 2.85 6.5702C2.85 6.36215 2.93075 6.175 3.3307 6.175Z" fill="#E3E3E3"/>
</svg>
